<?xml version="1.0" encoding="UTF-8"?>
<!DOCTYPE svg PUBLIC "-//W3C//DTD SVG 1.1//EN" "http://www.w3.org/Graphics/SVG/1.1/DTD/svg11.dtd">
<!-- Creator: CorelDRAW 2020 (64-Bit) -->
<svg xmlns="http://www.w3.org/2000/svg" xml:space="preserve" width="6.65278in" height="6.65278in" version="1.1" style="shape-rendering:geometricPrecision; text-rendering:geometricPrecision; image-rendering:optimizeQuality; fill-rule:evenodd; clip-rule:evenodd"
viewBox="0 0 6652.78 6652.78"
 xmlns:xlink="http://www.w3.org/1999/xlink"
 xmlns:xodm="http://www.corel.com/coreldraw/odm/2003">
 <defs>
  <style type="text/css">
   <![CDATA[
    .fil3 {fill:#4EA4A6}
    .fil4 {fill:#686FFE}
    .fil2 {fill:#D1E5F4}
    .fil1 {fill:#FFCC00}
    .fil0 {fill:#0E34A0;fill-rule:nonzero}
   ]]>
  </style>
 </defs>
 <g id="Layer_x0020_4">
  <metadata id="CorelCorpID_0Corel-Layer"/>
  <path class="fil0" d="M1946.69 4269.2l-68.91 0 0 92.77 16.17 0 0 -37.77 46.78 0 0 -14.71 -46.78 0 0 -25.57 52.74 0 0 -14.71zm94.76 0l0 92.77 16.17 0 0 -92.77 -16.17 0zm181.56 64.14l-49.59 -64.14 -15.08 0 0 92.77 16.17 0 0 -66 51.04 66 13.63 0 0 -92.77 -16.17 0 0 64.14zm163.81 -64.8l-15.11 0 -40.81 93.43 16.7 0 9.54 -22.4 43.87 0 9.41 22.4 17.23 0 -40.81 -93.43zm8.22 56.59l-31.94 0 15.91 -37.11 16.04 37.11zm188.98 8.21l-49.59 -64.14 -15.09 0 0 92.77 16.17 0 0 -66 51.04 66 13.63 0 0 -92.77 -16.17 0 0 64.14zm196.54 13.78l-10.47 -10.6c-3.98,3.71 -8,6.65 -12.06,8.81 -4.07,2.16 -8.93,3.25 -14.58,3.25 -4.42,0 -8.5,-0.86 -12.26,-2.59 -3.76,-1.72 -7,-4.09 -9.74,-7.09 -2.74,-3 -4.86,-6.52 -6.36,-10.54 -1.5,-4.02 -2.25,-8.33 -2.25,-12.92 0,-4.59 0.75,-8.88 2.25,-12.85 1.5,-3.98 3.62,-7.44 6.36,-10.4 2.74,-2.96 5.98,-5.3 9.74,-7.03 3.76,-1.72 7.84,-2.58 12.26,-2.58 5.3,0 10.03,1.06 14.18,3.18 4.15,2.12 8.08,4.9 11.79,8.35l10.47 -12.06c-2.21,-2.12 -4.55,-4.07 -7.02,-5.83 -2.48,-1.76 -5.17,-3.29 -8.09,-4.57 -2.91,-1.28 -6.12,-2.28 -9.61,-2.98 -3.49,-0.71 -7.36,-1.06 -11.6,-1.06 -7.07,0 -13.52,1.26 -19.35,3.78 -5.83,2.52 -10.87,5.96 -15.11,10.33 -4.24,4.37 -7.53,9.48 -9.87,15.31 -2.34,5.83 -3.51,12.06 -3.51,18.69 0,6.72 1.19,12.99 3.57,18.82 2.39,5.83 5.68,10.89 9.87,15.17 4.2,4.29 9.17,7.67 14.91,10.14 5.74,2.47 12.02,3.71 18.82,3.71 4.33,0 8.28,-0.37 11.86,-1.13 3.58,-0.75 6.87,-1.85 9.87,-3.31 3,-1.46 5.81,-3.18 8.42,-5.17 2.61,-1.99 5.1,-4.26 7.49,-6.83zm161.55 -77.93l-68.65 0 0 92.77 69.31 0 0 -14.71 -53.15 0 0 -24.78 46.52 0 0 -14.71 -46.52 0 0 -23.85 52.48 0 0 -14.71zm88.53 105.22l1.72 6.76c6.71,-0.53 11.8,-2.47 15.24,-5.83 3.44,-3.36 5.17,-8.75 5.17,-16.17l0 -15.37 -17.63 0 0 18.15 6.76 0c0.62,6.72 -3.13,10.87 -11.26,12.46zm172.29 -80.97c0,-3.09 1.32,-5.72 3.98,-7.89 2.65,-2.16 6.36,-3.24 11.13,-3.24 4.24,0 8.44,0.81 12.59,2.45 4.15,1.64 8.35,4 12.59,7.09l8.75 -12.32c-4.77,-3.8 -9.87,-6.69 -15.31,-8.68 -5.43,-1.99 -11.55,-2.98 -18.35,-2.98 -4.59,0 -8.83,0.64 -12.7,1.92 -3.89,1.28 -7.2,3.11 -9.96,5.5 -2.76,2.39 -4.93,5.23 -6.52,8.55 -1.57,3.31 -2.36,7 -2.36,11.06 0,4.33 0.69,8 2.06,11 1.37,3 3.38,5.56 5.98,7.69 2.61,2.12 5.85,3.89 9.7,5.3 3.87,1.41 8.26,2.7 13.23,3.85 4.33,1.06 7.84,2.07 10.56,3.05 2.7,0.97 4.82,2.01 6.39,3.11 1.54,1.1 2.61,2.32 3.18,3.64 0.57,1.33 0.87,2.83 0.87,4.51 0,3.62 -1.48,6.49 -4.44,8.61 -2.96,2.12 -6.96,3.18 -12,3.18 -5.83,0 -11.04,-1.04 -15.64,-3.11 -4.59,-2.08 -9.14,-5.06 -13.65,-8.95l-9.81 11.67c5.57,5.04 11.62,8.77 18.16,11.2 6.54,2.43 13.39,3.65 20.54,3.65 4.86,0 9.32,-0.62 13.39,-1.86 4.04,-1.24 7.53,-3.05 10.41,-5.43 2.89,-2.38 5.15,-5.3 6.78,-8.74 1.61,-3.44 2.43,-7.38 2.43,-11.8 0,-3.89 -0.64,-7.27 -1.92,-10.14 -1.28,-2.87 -3.18,-5.39 -5.65,-7.56 -2.47,-2.16 -5.61,-4 -9.37,-5.5 -3.76,-1.5 -8.08,-2.87 -12.94,-4.11 -4.44,-1.06 -8.09,-2.07 -10.98,-3.05 -2.87,-0.97 -5.12,-2.03 -6.78,-3.18 -1.63,-1.15 -2.76,-2.39 -3.38,-3.71 -0.62,-1.32 -0.93,-2.92 -0.93,-4.77zm184.21 -9.14l29.42 0 0 -15.11 -75.27 0 0 15.11 29.42 0 0 77.66 16.43 0 0 -77.66zm201.18 77.66l-25.05 -35.12c3.27,-0.88 6.25,-2.14 8.94,-3.78 2.7,-1.63 5.02,-3.62 6.96,-5.96 1.94,-2.34 3.47,-5.04 4.57,-8.08 1.11,-3.05 1.66,-6.52 1.66,-10.41 0,-4.5 -0.8,-8.59 -2.39,-12.26 -1.59,-3.67 -3.87,-6.76 -6.83,-9.28 -2.96,-2.52 -6.58,-4.46 -10.87,-5.83 -4.28,-1.37 -9.08,-2.06 -14.38,-2.06l-41.35 0 0 92.77 16.17 0 0 -32.33 20.48 0 22.86 32.33 19.21 0zm-19.48 -62.48c0,4.8 -1.72,8.61 -5.19,11.44 -3.44,2.85 -8.11,4.26 -13.96,4.26l-23.92 0 0 -31.28 23.79 0c6.12,0 10.87,1.3 14.22,3.93 3.38,2.61 5.06,6.5 5.06,11.64zm190.31 -30.28l-16.17 0 0 53.41c0,8.57 -2.1,15.02 -6.27,19.35 -4.18,4.33 -9.9,6.5 -17.19,6.5 -7.38,0 -13.14,-2.25 -17.31,-6.76 -4.17,-4.51 -6.28,-11.09 -6.28,-19.74l0 -52.75 -16.17 0 0 53.41c0,6.71 0.93,12.61 2.78,17.69 1.85,5.08 4.5,9.34 7.95,12.79 3.45,3.44 7.6,6.03 12.46,7.75 4.86,1.72 10.3,2.58 16.3,2.58 6.09,0 11.59,-0.86 16.5,-2.58 4.9,-1.72 9.07,-4.33 12.52,-7.82 3.44,-3.49 6.12,-7.84 8.02,-13.06 1.9,-5.21 2.85,-11.26 2.85,-18.15l0 -52.61zm178.91 77.93l-10.47 -10.6c-3.98,3.71 -8,6.65 -12.06,8.81 -4.06,2.16 -8.92,3.25 -14.58,3.25 -4.41,0 -8.5,-0.86 -12.26,-2.59 -3.76,-1.72 -7,-4.09 -9.74,-7.09 -2.74,-3 -4.86,-6.52 -6.36,-10.54 -1.5,-4.02 -2.25,-8.33 -2.25,-12.92 0,-4.59 0.75,-8.88 2.25,-12.85 1.5,-3.98 3.62,-7.44 6.36,-10.4 2.74,-2.96 5.98,-5.3 9.74,-7.03 3.76,-1.72 7.84,-2.58 12.26,-2.58 5.3,0 10.03,1.06 14.18,3.18 4.15,2.12 8.09,4.9 11.8,8.35l10.47 -12.06c-2.21,-2.12 -4.55,-4.07 -7.02,-5.83 -2.48,-1.76 -5.17,-3.29 -8.09,-4.57 -2.91,-1.28 -6.12,-2.28 -9.61,-2.98 -3.49,-0.71 -7.36,-1.06 -11.6,-1.06 -7.07,0 -13.52,1.26 -19.35,3.78 -5.83,2.52 -10.87,5.96 -15.11,10.33 -4.24,4.37 -7.54,9.48 -9.87,15.31 -2.34,5.83 -3.51,12.06 -3.51,18.69 0,6.72 1.19,12.99 3.57,18.82 2.39,5.83 5.68,10.89 9.87,15.17 4.2,4.29 9.17,7.67 14.91,10.14 5.74,2.47 12.02,3.71 18.82,3.71 4.33,0 8.28,-0.37 11.86,-1.13 3.58,-0.75 6.87,-1.85 9.87,-3.31 3,-1.46 5.81,-3.18 8.42,-5.17 2.61,-1.99 5.1,-4.26 7.49,-6.83zm132.13 -62.81l29.42 0 0 -15.11 -75.27 0 0 15.11 29.42 0 0 77.66 16.43 0 0 -77.66zm200.38 -15.11l-16.17 0 0 53.41c0,8.57 -2.1,15.02 -6.28,19.35 -4.17,4.33 -9.89,6.5 -17.18,6.5 -7.38,0 -13.14,-2.25 -17.32,-6.76 -4.17,-4.51 -6.27,-11.09 -6.27,-19.74l0 -52.75 -16.17 0 0 53.41c0,6.71 0.93,12.61 2.78,17.69 1.85,5.08 4.5,9.34 7.95,12.79 3.44,3.44 7.6,6.03 12.46,7.75 4.86,1.72 10.29,2.58 16.3,2.58 6.1,0 11.6,-0.86 16.5,-2.58 4.9,-1.72 9.08,-4.33 12.52,-7.82 3.44,-3.49 6.12,-7.84 8.02,-13.06 1.9,-5.21 2.85,-11.26 2.85,-18.15l0 -52.61zm176.93 92.77l-25.05 -35.12c3.27,-0.88 6.25,-2.14 8.94,-3.78 2.7,-1.63 5.02,-3.62 6.96,-5.96 1.94,-2.34 3.47,-5.04 4.57,-8.08 1.11,-3.05 1.66,-6.52 1.66,-10.41 0,-4.5 -0.8,-8.59 -2.39,-12.26 -1.59,-3.67 -3.87,-6.76 -6.83,-9.28 -2.96,-2.52 -6.58,-4.46 -10.87,-5.83 -4.28,-1.37 -9.08,-2.06 -14.38,-2.06l-41.35 0 0 92.77 16.17 0 0 -32.33 20.48 0 22.86 32.33 19.21 0zm-19.48 -62.48c0,4.8 -1.72,8.61 -5.19,11.44 -3.44,2.85 -8.11,4.26 -13.96,4.26l-23.92 0 0 -31.28 23.79 0c6.12,0 10.87,1.3 14.22,3.93 3.38,2.61 5.06,6.5 5.06,11.64zm181.04 -30.28l-68.65 0 0 92.77 69.31 0 0 -14.71 -53.14 0 0 -24.78 46.52 0 0 -14.71 -46.52 0 0 -23.85 52.48 0 0 -14.71zm179.84 46.25c0,-6.54 -1.19,-12.63 -3.58,-18.29 -2.39,-5.65 -5.76,-10.56 -10.14,-14.71 -4.37,-4.15 -9.59,-7.4 -15.64,-9.74 -6.05,-2.34 -12.7,-3.52 -19.94,-3.52l-34.59 0 0 92.77 34.59 0c7.25,0 13.89,-1.19 19.94,-3.58 6.05,-2.39 11.26,-5.65 15.64,-9.8 4.37,-4.15 7.75,-9.08 10.14,-14.78 2.39,-5.7 3.58,-11.81 3.58,-18.35zm-17.09 0.26c0,4.62 -0.78,8.86 -2.32,12.7 -1.55,3.87 -3.73,7.2 -6.52,9.98 -2.78,2.81 -6.19,4.97 -10.16,6.54 -4,1.54 -8.41,2.32 -13.3,2.32l-18.33 0 0 -63.35 18.33 0c4.88,0 9.3,0.8 13.3,2.39 3.98,1.61 7.38,3.82 10.16,6.67 2.78,2.83 4.97,6.19 6.52,10.05 1.54,3.85 2.32,8.09 2.32,12.7z"/>
 </g>
 <g id="Layer_x0020_5">
  <metadata id="CorelCorpID_1Corel-Layer"/>
  <path class="fil0" d="M2340.56 3639.73l0 87.44c-38.06,-65.84 -106.99,-101.85 -194.44,-101.85 -153.29,0 -267.48,126.54 -267.48,287.03 0,160.49 114.2,287.03 267.48,287.03 87.44,0 156.37,-36 194.44,-101.85l0 87.44 108.02 0 0 -545.25 -108.02 0zm0 272.63c0,118.31 -76.13,192.38 -177.98,192.38 -105.96,0 -180.04,-85.39 -180.04,-192.38 0,-107 74.07,-192.38 180.04,-192.38 101.85,0 177.98,74.07 177.98,192.38zm836.4 0c0,-160.49 -114.19,-287.03 -267.48,-287.03 -87.45,0 -156.38,36.01 -194.44,101.85l0 -308.63 -108.02 0 0 766.43 108.02 0 0 -87.44c38.06,65.84 106.99,101.85 194.44,101.85 153.29,0 267.48,-126.54 267.48,-287.03zm-103.91 0c0,106.99 -74.07,192.38 -180.04,192.38 -101.85,0 -177.98,-74.07 -177.98,-192.38 0,-118.31 76.13,-192.38 177.98,-192.38 105.96,0 180.04,85.39 180.04,192.38zm336.41 -272.63l-108.02 0 0 545.25 108.02 0 0 -545.25zm586.4 -221.19l0 308.63c-38.06,-65.84 -106.99,-101.85 -194.44,-101.85 -153.28,0 -267.48,126.54 -267.48,287.03 0,160.49 114.2,287.03 267.48,287.03 87.45,0 156.38,-36 194.44,-101.85l0 87.44 108.02 0 0 -766.43 -108.02 0zm0 493.81c0,118.31 -76.13,192.38 -177.98,192.38 -105.96,0 -180.04,-85.39 -180.04,-192.38 0,-107 74.07,-192.38 180.04,-192.38 101.85,0 177.98,74.07 177.98,192.38zm790.1 41.15c1.03,-20.57 2.06,-39.09 2.06,-56.58 0,-159.46 -118.31,-271.6 -279.83,-271.6 -161.52,0 -279.83,123.45 -279.83,287.03 0,163.57 122.43,287.03 294.24,287.03 105.96,0 200.61,-47.32 246.9,-116.25l-83.33 -55.55c-32.92,48.35 -94.65,78.18 -163.57,78.18 -98.77,0 -172.84,-57.61 -189.3,-152.26l452.66 0zm-451.63 -84.36c15.43,-91.56 85.39,-151.23 174.89,-151.23 99.79,0 169.75,60.7 174.89,151.23l-349.78 0z"/>
 </g>
 <g id="Layer_x0020_6">
  <metadata id="CorelCorpID_2Corel-Layer"/>
  <path class="fil1" d="M3014.49 3057.08c43.71,0 79.13,35.43 79.13,79.15 0,6.18 -0.72,12.2 -2.06,17.98l237.54 237.54c6.69,-1.84 13.74,-2.83 21,-2.83 7.27,0 14.31,0.99 20.99,2.83l379.09 -379.08 260.29 -260.29c-13.99,-45.55 30.35,-102.37 75.65,-102.37 43.7,0 79.13,35.43 79.13,79.13 0,45.33 -56.8,89.6 -102.37,75.65l-260.29 260.29 -377.55 377.55c15.81,46.66 -28.69,104.56 -74.95,104.56 -46.23,0 -90.81,-57.91 -74.95,-104.56l-232.46 -232.46c-8.76,3.34 -18.25,5.18 -28.2,5.18 -9.94,0 -19.43,-1.85 -28.19,-5.19l-178.69 178.68c-33.46,33.45 -89.86,-14.91 -52.43,-52.42l182.25 -182.24c-1.35,-5.78 -2.06,-11.79 -2.06,-17.97 0,-43.72 35.42,-79.15 79.12,-79.15z"/>
 </g>
 <g id="Layer_x0020_7">
  <metadata id="CorelCorpID_3Corel-Layer"/>
  <path class="fil2" d="M2787.99 2975.04l36.98 36.96c133.16,133.18 -80.67,347 -213.83,213.84l-36.98 -36.97c-133.14,-133.17 80.65,-346.98 213.83,-213.83z"/>
 </g>
 <g id="Layer_x0020_8">
  <metadata id="CorelCorpID_4Corel-Layer"/>
  <path class="fil3" d="M2912.23 2651.19l14.2 -14.21c54.97,-54.96 144.66,-54.96 199.63,0l375.02 375.03c54.96,54.97 54.96,144.65 0,199.63l-14.21 14.2c-54.96,54.97 -144.66,54.97 -199.62,0l-375.02 -375.03c-54.97,-54.97 -54.97,-144.65 0,-199.62z"/>
 </g>
 <g id="Layer_x0020_9">
  <metadata id="CorelCorpID_5Corel-Layer"/>
  <path class="fil4" d="M3250.29 2313.13l14.2 -14.2c54.97,-54.96 144.66,-54.96 199.63,0l375.02 375.02c54.96,54.97 54.96,144.66 0,199.63l-14.21 14.2c-54.96,54.97 -144.66,54.97 -199.62,0l-375.02 -375.03c-54.98,-54.97 -54.98,-144.66 0,-199.62zm889.91 661.56l36.98 36.96c133.16,133.18 -80.67,347 -213.82,213.84l-36.98 -36.97c-133.14,-133.17 80.65,-346.98 213.83,-213.83z"/>
 </g>
 <g id="Layer_x0020_9_0">
  <metadata id="CorelCorpID_6Corel-Layer"/>
 </g>
</svg>
